<mxfile host="app.diagrams.net" modified="2020-04-22T10:10:48.279Z" agent="Mozilla/5.0 (Windows NT 10.0; Win64; x64) AppleWebKit/537.36 (KHTML, like Gecko) Chrome/81.0.4044.113 Safari/537.36" etag="VgVX33eqGuglr4geLHqY" version="12.9.1" type="github">
  <diagram id="fFb238TyB3PJ5mMqvvUI" name="Page-1">
    <mxGraphModel dx="1422" dy="1963" grid="1" gridSize="10" guides="1" tooltips="1" connect="1" arrows="1" fold="1" page="1" pageScale="1" pageWidth="827" pageHeight="1169" math="0" shadow="0">
      <root>
        <mxCell id="0" />
        <mxCell id="1" parent="0" />
        <mxCell id="ECVslOZb0kvUAlRfD1S1-1" value="Admin" style="shape=umlActor;verticalLabelPosition=bottom;labelBackgroundColor=#ffffff;verticalAlign=top;html=1;" parent="1" vertex="1">
          <mxGeometry x="30" y="160" width="30" height="60" as="geometry" />
        </mxCell>
        <mxCell id="ECVslOZb0kvUAlRfD1S1-2" value="Guest" style="shape=umlActor;verticalLabelPosition=bottom;labelBackgroundColor=#ffffff;verticalAlign=top;html=1;" parent="1" vertex="1">
          <mxGeometry x="30" y="290" width="30" height="60" as="geometry" />
        </mxCell>
        <mxCell id="ECVslOZb0kvUAlRfD1S1-3" value="User" style="shape=umlActor;verticalLabelPosition=bottom;labelBackgroundColor=#ffffff;verticalAlign=top;html=1;" parent="1" vertex="1">
          <mxGeometry x="30" y="420" width="30" height="60" as="geometry" />
        </mxCell>
        <mxCell id="ECVslOZb0kvUAlRfD1S1-6" value="TrackYourFit" style="shape=umlFrame;whiteSpace=wrap;html=1;width=90;height=35;" parent="1" vertex="1">
          <mxGeometry x="120" y="-130" width="680" height="1280" as="geometry" />
        </mxCell>
        <mxCell id="ECVslOZb0kvUAlRfD1S1-8" value="membership" style="shape=umlFrame;whiteSpace=wrap;html=1;width=80;height=30;" parent="1" vertex="1">
          <mxGeometry x="275" y="-90" width="505" height="650" as="geometry" />
        </mxCell>
        <mxCell id="ECVslOZb0kvUAlRfD1S1-11" value="Create account" style="ellipse;whiteSpace=wrap;html=1;fillColor=#d5e8d4;strokeColor=#82b366;" parent="1" vertex="1">
          <mxGeometry x="295" y="198.5" width="135" height="60" as="geometry" />
        </mxCell>
        <mxCell id="ECVslOZb0kvUAlRfD1S1-12" value="Log in" style="ellipse;whiteSpace=wrap;html=1;fillColor=#d5e8d4;strokeColor=#82b366;" parent="1" vertex="1">
          <mxGeometry x="295" y="266.5" width="135" height="60" as="geometry" />
        </mxCell>
        <mxCell id="ECVslOZb0kvUAlRfD1S1-55" style="edgeStyle=orthogonalEdgeStyle;rounded=0;orthogonalLoop=1;jettySize=auto;html=1;exitX=1;exitY=0.5;exitDx=0;exitDy=0;entryX=0;entryY=0.5;entryDx=0;entryDy=0;" parent="1" source="ECVslOZb0kvUAlRfD1S1-13" target="ECVslOZb0kvUAlRfD1S1-45" edge="1">
          <mxGeometry relative="1" as="geometry" />
        </mxCell>
        <mxCell id="ECVslOZb0kvUAlRfD1S1-13" value="Edit account" style="ellipse;whiteSpace=wrap;html=1;fillColor=#dae8fc;strokeColor=#6c8ebf;" parent="1" vertex="1">
          <mxGeometry x="295" y="339" width="135" height="60" as="geometry" />
        </mxCell>
        <mxCell id="ECVslOZb0kvUAlRfD1S1-14" value="Delete account" style="ellipse;whiteSpace=wrap;html=1;fillColor=#dae8fc;strokeColor=#6c8ebf;" parent="1" vertex="1">
          <mxGeometry x="295" y="409.5" width="135" height="60" as="geometry" />
        </mxCell>
        <mxCell id="ECVslOZb0kvUAlRfD1S1-15" value="Fitness" style="shape=umlFrame;whiteSpace=wrap;html=1;" parent="1" vertex="1">
          <mxGeometry x="275" y="590" width="505" height="550" as="geometry" />
        </mxCell>
        <mxCell id="ECVslOZb0kvUAlRfD1S1-16" value="Create training plan" style="ellipse;whiteSpace=wrap;html=1;fillColor=#d5e8d4;strokeColor=#82b366;" parent="1" vertex="1">
          <mxGeometry x="532.5" y="680" width="135" height="60" as="geometry" />
        </mxCell>
        <mxCell id="ECVslOZb0kvUAlRfD1S1-17" value="Edit training plan" style="ellipse;whiteSpace=wrap;html=1;fillColor=#d5e8d4;strokeColor=#82b366;" parent="1" vertex="1">
          <mxGeometry x="532.5" y="750" width="135" height="60" as="geometry" />
        </mxCell>
        <mxCell id="ECVslOZb0kvUAlRfD1S1-18" value="Delete training plan" style="ellipse;whiteSpace=wrap;html=1;fillColor=#d5e8d4;strokeColor=#82b366;" parent="1" vertex="1">
          <mxGeometry x="532.5" y="610" width="135" height="60" as="geometry" />
        </mxCell>
        <mxCell id="ECVslOZb0kvUAlRfD1S1-19" value="Track training plan" style="ellipse;whiteSpace=wrap;html=1;" parent="1" vertex="1">
          <mxGeometry x="532.5" y="822.5" width="135" height="60" as="geometry" />
        </mxCell>
        <mxCell id="ECVslOZb0kvUAlRfD1S1-20" value="View stats" style="ellipse;whiteSpace=wrap;html=1;fillColor=#dae8fc;strokeColor=#6c8ebf;" parent="1" vertex="1">
          <mxGeometry x="292.5" y="730" width="135" height="60" as="geometry" />
        </mxCell>
        <mxCell id="ECVslOZb0kvUAlRfD1S1-69" style="edgeStyle=orthogonalEdgeStyle;rounded=0;orthogonalLoop=1;jettySize=auto;html=1;entryX=0;entryY=0.5;entryDx=0;entryDy=0;" parent="1" source="ECVslOZb0kvUAlRfD1S1-21" target="ECVslOZb0kvUAlRfD1S1-19" edge="1">
          <mxGeometry relative="1" as="geometry" />
        </mxCell>
        <mxCell id="ECVslOZb0kvUAlRfD1S1-73" style="edgeStyle=orthogonalEdgeStyle;rounded=0;orthogonalLoop=1;jettySize=auto;html=1;entryX=0;entryY=0.5;entryDx=0;entryDy=0;" parent="1" source="ECVslOZb0kvUAlRfD1S1-21" target="ECVslOZb0kvUAlRfD1S1-72" edge="1">
          <mxGeometry relative="1" as="geometry" />
        </mxCell>
        <mxCell id="ECVslOZb0kvUAlRfD1S1-21" value="Track health" style="ellipse;whiteSpace=wrap;html=1;fillColor=#d5e8d4;strokeColor=#82b366;" parent="1" vertex="1">
          <mxGeometry x="292.5" y="822.5" width="135" height="60" as="geometry" />
        </mxCell>
        <mxCell id="ECVslOZb0kvUAlRfD1S1-22" value="Notify friends when training" style="ellipse;whiteSpace=wrap;html=1;fillColor=#fff2cc;strokeColor=#d6b656;" parent="1" vertex="1">
          <mxGeometry x="530" y="1060.5" width="140" height="60" as="geometry" />
        </mxCell>
        <mxCell id="ECVslOZb0kvUAlRfD1S1-56" style="edgeStyle=orthogonalEdgeStyle;rounded=0;orthogonalLoop=1;jettySize=auto;html=1;entryX=0;entryY=0.5;entryDx=0;entryDy=0;" parent="1" source="ECVslOZb0kvUAlRfD1S1-23" target="ECVslOZb0kvUAlRfD1S1-43" edge="1">
          <mxGeometry relative="1" as="geometry" />
        </mxCell>
        <mxCell id="ECVslOZb0kvUAlRfD1S1-57" style="edgeStyle=orthogonalEdgeStyle;rounded=0;orthogonalLoop=1;jettySize=auto;html=1;entryX=0;entryY=0.5;entryDx=0;entryDy=0;" parent="1" source="ECVslOZb0kvUAlRfD1S1-23" target="ECVslOZb0kvUAlRfD1S1-47" edge="1">
          <mxGeometry relative="1" as="geometry" />
        </mxCell>
        <mxCell id="ECVslOZb0kvUAlRfD1S1-23" value="Manage friends" style="ellipse;whiteSpace=wrap;html=1;fillColor=#dae8fc;strokeColor=#6c8ebf;" parent="1" vertex="1">
          <mxGeometry x="295" y="479.9000244140625" width="135" height="60" as="geometry" />
        </mxCell>
        <mxCell id="ECVslOZb0kvUAlRfD1S1-58" style="edgeStyle=orthogonalEdgeStyle;rounded=0;orthogonalLoop=1;jettySize=auto;html=1;entryX=0;entryY=0.5;entryDx=0;entryDy=0;" parent="1" source="ECVslOZb0kvUAlRfD1S1-24" target="ECVslOZb0kvUAlRfD1S1-52" edge="1">
          <mxGeometry relative="1" as="geometry" />
        </mxCell>
        <mxCell id="ECVslOZb0kvUAlRfD1S1-24" value="Manage all users" style="ellipse;whiteSpace=wrap;html=1;fillColor=#dae8fc;strokeColor=#6c8ebf;" parent="1" vertex="1">
          <mxGeometry x="295" y="130" width="135" height="60" as="geometry" />
        </mxCell>
        <mxCell id="ECVslOZb0kvUAlRfD1S1-28" value="Rate training plans" style="ellipse;whiteSpace=wrap;html=1;fillColor=#dae8fc;strokeColor=#6c8ebf;" parent="1" vertex="1">
          <mxGeometry x="532" y="980" width="135" height="60" as="geometry" />
        </mxCell>
        <mxCell id="ECVslOZb0kvUAlRfD1S1-32" value="" style="endArrow=none;html=1;entryX=0;entryY=0.5;entryDx=0;entryDy=0;" parent="1" target="ECVslOZb0kvUAlRfD1S1-24" edge="1">
          <mxGeometry relative="1" as="geometry">
            <mxPoint x="70" y="190" as="sourcePoint" />
            <mxPoint x="300" y="190" as="targetPoint" />
          </mxGeometry>
        </mxCell>
        <mxCell id="ECVslOZb0kvUAlRfD1S1-35" value="" style="endArrow=none;html=1;entryX=0;entryY=0.5;entryDx=0;entryDy=0;" parent="1" target="ECVslOZb0kvUAlRfD1S1-11" edge="1">
          <mxGeometry relative="1" as="geometry">
            <mxPoint x="70" y="330" as="sourcePoint" />
            <mxPoint x="307.5" y="161.5" as="targetPoint" />
          </mxGeometry>
        </mxCell>
        <mxCell id="ECVslOZb0kvUAlRfD1S1-36" value="" style="endArrow=none;html=1;entryX=0;entryY=0.5;entryDx=0;entryDy=0;" parent="1" target="ECVslOZb0kvUAlRfD1S1-12" edge="1">
          <mxGeometry relative="1" as="geometry">
            <mxPoint x="70" y="459" as="sourcePoint" />
            <mxPoint x="295" y="420.5" as="targetPoint" />
          </mxGeometry>
        </mxCell>
        <mxCell id="ECVslOZb0kvUAlRfD1S1-37" value="" style="endArrow=none;html=1;entryX=0;entryY=0.5;entryDx=0;entryDy=0;" parent="1" target="ECVslOZb0kvUAlRfD1S1-13" edge="1">
          <mxGeometry relative="1" as="geometry">
            <mxPoint x="70" y="460" as="sourcePoint" />
            <mxPoint x="305" y="306.5" as="targetPoint" />
          </mxGeometry>
        </mxCell>
        <mxCell id="ECVslOZb0kvUAlRfD1S1-38" value="" style="endArrow=none;html=1;entryX=0;entryY=0.5;entryDx=0;entryDy=0;" parent="1" target="ECVslOZb0kvUAlRfD1S1-14" edge="1">
          <mxGeometry relative="1" as="geometry">
            <mxPoint x="70" y="460" as="sourcePoint" />
            <mxPoint x="305" y="379" as="targetPoint" />
          </mxGeometry>
        </mxCell>
        <mxCell id="ECVslOZb0kvUAlRfD1S1-39" value="" style="endArrow=none;html=1;entryX=0;entryY=0.5;entryDx=0;entryDy=0;" parent="1" target="ECVslOZb0kvUAlRfD1S1-23" edge="1">
          <mxGeometry relative="1" as="geometry">
            <mxPoint x="70" y="460" as="sourcePoint" />
            <mxPoint x="315" y="389" as="targetPoint" />
          </mxGeometry>
        </mxCell>
        <mxCell id="ECVslOZb0kvUAlRfD1S1-59" style="edgeStyle=orthogonalEdgeStyle;rounded=0;orthogonalLoop=1;jettySize=auto;html=1;entryX=0;entryY=0.5;entryDx=0;entryDy=0;" parent="1" source="ECVslOZb0kvUAlRfD1S1-40" target="ECVslOZb0kvUAlRfD1S1-18" edge="1">
          <mxGeometry relative="1" as="geometry" />
        </mxCell>
        <mxCell id="ECVslOZb0kvUAlRfD1S1-60" style="edgeStyle=orthogonalEdgeStyle;rounded=0;orthogonalLoop=1;jettySize=auto;html=1;entryX=0;entryY=0.5;entryDx=0;entryDy=0;" parent="1" source="ECVslOZb0kvUAlRfD1S1-40" target="ECVslOZb0kvUAlRfD1S1-16" edge="1">
          <mxGeometry relative="1" as="geometry" />
        </mxCell>
        <mxCell id="ECVslOZb0kvUAlRfD1S1-61" style="edgeStyle=orthogonalEdgeStyle;rounded=0;orthogonalLoop=1;jettySize=auto;html=1;entryX=0;entryY=0.5;entryDx=0;entryDy=0;" parent="1" source="ECVslOZb0kvUAlRfD1S1-40" target="ECVslOZb0kvUAlRfD1S1-17" edge="1">
          <mxGeometry relative="1" as="geometry" />
        </mxCell>
        <mxCell id="ECVslOZb0kvUAlRfD1S1-40" value="Manage training plan" style="ellipse;whiteSpace=wrap;html=1;fillColor=#d5e8d4;strokeColor=#82b366;" parent="1" vertex="1">
          <mxGeometry x="292.5" y="640" width="135" height="60" as="geometry" />
        </mxCell>
        <mxCell id="ECVslOZb0kvUAlRfD1S1-63" style="edgeStyle=orthogonalEdgeStyle;rounded=0;orthogonalLoop=1;jettySize=auto;html=1;entryX=0;entryY=0.5;entryDx=0;entryDy=0;" parent="1" source="ECVslOZb0kvUAlRfD1S1-42" target="ECVslOZb0kvUAlRfD1S1-28" edge="1">
          <mxGeometry relative="1" as="geometry" />
        </mxCell>
        <mxCell id="ECVslOZb0kvUAlRfD1S1-64" style="edgeStyle=orthogonalEdgeStyle;rounded=0;orthogonalLoop=1;jettySize=auto;html=1;entryX=0;entryY=0.5;entryDx=0;entryDy=0;" parent="1" source="ECVslOZb0kvUAlRfD1S1-42" target="ECVslOZb0kvUAlRfD1S1-22" edge="1">
          <mxGeometry relative="1" as="geometry" />
        </mxCell>
        <mxCell id="ECVslOZb0kvUAlRfD1S1-42" value="Ingteract with users" style="ellipse;whiteSpace=wrap;html=1;fillColor=#dae8fc;strokeColor=#6c8ebf;" parent="1" vertex="1">
          <mxGeometry x="285" y="980" width="140" height="60" as="geometry" />
        </mxCell>
        <mxCell id="ECVslOZb0kvUAlRfD1S1-43" value="Add friends" style="ellipse;whiteSpace=wrap;html=1;fillColor=#dae8fc;strokeColor=#6c8ebf;" parent="1" vertex="1">
          <mxGeometry x="560" y="409.5" width="135" height="60" as="geometry" />
        </mxCell>
        <mxCell id="ECVslOZb0kvUAlRfD1S1-44" value="Change E-Mail" style="ellipse;whiteSpace=wrap;html=1;fillColor=#dae8fc;strokeColor=#6c8ebf;" parent="1" vertex="1">
          <mxGeometry x="560" y="339" width="135" height="60" as="geometry" />
        </mxCell>
        <mxCell id="ECVslOZb0kvUAlRfD1S1-45" value="Change password" style="ellipse;whiteSpace=wrap;html=1;fillColor=#dae8fc;strokeColor=#6c8ebf;" parent="1" vertex="1">
          <mxGeometry x="560" y="266.5" width="135" height="60" as="geometry" />
        </mxCell>
        <mxCell id="ECVslOZb0kvUAlRfD1S1-47" value="Delete friends" style="ellipse;whiteSpace=wrap;html=1;fillColor=#dae8fc;strokeColor=#6c8ebf;" parent="1" vertex="1">
          <mxGeometry x="560" y="480" width="135" height="60" as="geometry" />
        </mxCell>
        <mxCell id="ECVslOZb0kvUAlRfD1S1-52" value="Delete users" style="ellipse;whiteSpace=wrap;html=1;fillColor=#dae8fc;strokeColor=#6c8ebf;" parent="1" vertex="1">
          <mxGeometry x="560" y="130" width="135" height="60" as="geometry" />
        </mxCell>
        <mxCell id="ECVslOZb0kvUAlRfD1S1-54" value="" style="endArrow=classic;html=1;exitX=1;exitY=0.5;exitDx=0;exitDy=0;entryX=0;entryY=0.5;entryDx=0;entryDy=0;" parent="1" source="ECVslOZb0kvUAlRfD1S1-13" target="ECVslOZb0kvUAlRfD1S1-44" edge="1">
          <mxGeometry width="50" height="50" relative="1" as="geometry">
            <mxPoint x="480" y="400" as="sourcePoint" />
            <mxPoint x="530" y="350" as="targetPoint" />
          </mxGeometry>
        </mxCell>
        <mxCell id="ECVslOZb0kvUAlRfD1S1-65" value="" style="endArrow=none;html=1;entryX=0;entryY=0.5;entryDx=0;entryDy=0;" parent="1" target="ECVslOZb0kvUAlRfD1S1-40" edge="1">
          <mxGeometry relative="1" as="geometry">
            <mxPoint x="70" y="460" as="sourcePoint" />
            <mxPoint x="305" y="379" as="targetPoint" />
          </mxGeometry>
        </mxCell>
        <mxCell id="ECVslOZb0kvUAlRfD1S1-66" value="" style="endArrow=none;html=1;entryX=0;entryY=0.5;entryDx=0;entryDy=0;" parent="1" target="ECVslOZb0kvUAlRfD1S1-20" edge="1">
          <mxGeometry relative="1" as="geometry">
            <mxPoint x="70" y="460" as="sourcePoint" />
            <mxPoint x="315" y="389" as="targetPoint" />
          </mxGeometry>
        </mxCell>
        <mxCell id="ECVslOZb0kvUAlRfD1S1-67" value="" style="endArrow=none;html=1;entryX=0;entryY=0.5;entryDx=0;entryDy=0;" parent="1" target="ECVslOZb0kvUAlRfD1S1-21" edge="1">
          <mxGeometry relative="1" as="geometry">
            <mxPoint x="70" y="460" as="sourcePoint" />
            <mxPoint x="325" y="399" as="targetPoint" />
          </mxGeometry>
        </mxCell>
        <mxCell id="ECVslOZb0kvUAlRfD1S1-68" value="" style="endArrow=none;html=1;entryX=0;entryY=0.5;entryDx=0;entryDy=0;" parent="1" target="ECVslOZb0kvUAlRfD1S1-42" edge="1">
          <mxGeometry relative="1" as="geometry">
            <mxPoint x="70" y="460" as="sourcePoint" />
            <mxPoint x="302.5" y="862.5" as="targetPoint" />
          </mxGeometry>
        </mxCell>
        <mxCell id="ECVslOZb0kvUAlRfD1S1-72" value="Track weight" style="ellipse;whiteSpace=wrap;html=1;fillColor=#d5e8d4;strokeColor=#82b366;" parent="1" vertex="1">
          <mxGeometry x="532.5" y="901.5" width="135" height="60" as="geometry" />
        </mxCell>
        <mxCell id="ECVslOZb0kvUAlRfD1S1-74" value="" style="endArrow=none;html=1;entryX=0;entryY=0.5;entryDx=0;entryDy=0;" parent="1" target="ECVslOZb0kvUAlRfD1S1-40" edge="1">
          <mxGeometry relative="1" as="geometry">
            <mxPoint x="70" y="190" as="sourcePoint" />
            <mxPoint x="305" y="170" as="targetPoint" />
          </mxGeometry>
        </mxCell>
        <mxCell id="ECVslOZb0kvUAlRfD1S1-77" value="Focus&lt;br&gt;1. Semester" style="html=1;fillColor=#d5e8d4;strokeColor=#82b366;" parent="1" vertex="1">
          <mxGeometry x="5" y="585" width="110" height="50" as="geometry" />
        </mxCell>
        <mxCell id="TCtCacCLyBXmjOLngmCE-1" value="Manage News" style="ellipse;whiteSpace=wrap;html=1;fillColor=#dae8fc;strokeColor=#6c8ebf;" parent="1" vertex="1">
          <mxGeometry x="295" y="-10" width="135" height="60" as="geometry" />
        </mxCell>
        <mxCell id="TCtCacCLyBXmjOLngmCE-2" value="Create News" style="ellipse;whiteSpace=wrap;html=1;fillColor=#dae8fc;strokeColor=#6c8ebf;" parent="1" vertex="1">
          <mxGeometry x="560" y="-10" width="135" height="60" as="geometry" />
        </mxCell>
        <mxCell id="TCtCacCLyBXmjOLngmCE-3" value="Edit News" style="ellipse;whiteSpace=wrap;html=1;fillColor=#dae8fc;strokeColor=#6c8ebf;" parent="1" vertex="1">
          <mxGeometry x="560" y="60" width="135" height="60" as="geometry" />
        </mxCell>
        <mxCell id="TCtCacCLyBXmjOLngmCE-4" value="Delete News" style="ellipse;whiteSpace=wrap;html=1;fillColor=#dae8fc;strokeColor=#6c8ebf;" parent="1" vertex="1">
          <mxGeometry x="560" y="-80" width="135" height="60" as="geometry" />
        </mxCell>
        <mxCell id="TCtCacCLyBXmjOLngmCE-5" value="" style="endArrow=none;html=1;entryX=0;entryY=0.5;entryDx=0;entryDy=0;" parent="1" target="TCtCacCLyBXmjOLngmCE-1" edge="1">
          <mxGeometry width="50" height="50" relative="1" as="geometry">
            <mxPoint x="70" y="190" as="sourcePoint" />
            <mxPoint x="200" y="60" as="targetPoint" />
          </mxGeometry>
        </mxCell>
        <mxCell id="TCtCacCLyBXmjOLngmCE-9" style="edgeStyle=orthogonalEdgeStyle;rounded=0;orthogonalLoop=1;jettySize=auto;html=1;entryX=0;entryY=0.5;entryDx=0;entryDy=0;exitX=1;exitY=0.5;exitDx=0;exitDy=0;" parent="1" source="TCtCacCLyBXmjOLngmCE-1" target="TCtCacCLyBXmjOLngmCE-4" edge="1">
          <mxGeometry relative="1" as="geometry">
            <mxPoint x="450" y="42" as="sourcePoint" />
            <mxPoint x="579.5" y="-30" as="targetPoint" />
          </mxGeometry>
        </mxCell>
        <mxCell id="TCtCacCLyBXmjOLngmCE-10" style="edgeStyle=orthogonalEdgeStyle;rounded=0;orthogonalLoop=1;jettySize=auto;html=1;exitX=1;exitY=0.5;exitDx=0;exitDy=0;" parent="1" source="TCtCacCLyBXmjOLngmCE-1" edge="1">
          <mxGeometry relative="1" as="geometry">
            <mxPoint x="440" y="30" as="sourcePoint" />
            <mxPoint x="560" y="20" as="targetPoint" />
          </mxGeometry>
        </mxCell>
        <mxCell id="TCtCacCLyBXmjOLngmCE-11" style="edgeStyle=orthogonalEdgeStyle;rounded=0;orthogonalLoop=1;jettySize=auto;html=1;entryX=0;entryY=0.5;entryDx=0;entryDy=0;exitX=1;exitY=0.5;exitDx=0;exitDy=0;" parent="1" source="TCtCacCLyBXmjOLngmCE-1" target="TCtCacCLyBXmjOLngmCE-3" edge="1">
          <mxGeometry relative="1" as="geometry">
            <mxPoint x="450" y="40" as="sourcePoint" />
            <mxPoint x="580" y="-30" as="targetPoint" />
          </mxGeometry>
        </mxCell>
        <mxCell id="5zZJO1shZDAMT5Krrs1Z-1" value="Focus&lt;br&gt;2. Semester" style="html=1;fillColor=#dae8fc;strokeColor=#6c8ebf;" vertex="1" parent="1">
          <mxGeometry x="5" y="645" width="110" height="50" as="geometry" />
        </mxCell>
        <mxCell id="5zZJO1shZDAMT5Krrs1Z-2" value="Potential future&lt;br&gt;additons" style="html=1;fillColor=#fff2cc;strokeColor=#d6b656;" vertex="1" parent="1">
          <mxGeometry x="5" y="703" width="110" height="50" as="geometry" />
        </mxCell>
        <mxCell id="5zZJO1shZDAMT5Krrs1Z-3" value="Track training plan" style="ellipse;whiteSpace=wrap;html=1;fillColor=#dae8fc;strokeColor=#6c8ebf;" vertex="1" parent="1">
          <mxGeometry x="532.5" y="822.5" width="135" height="60" as="geometry" />
        </mxCell>
      </root>
    </mxGraphModel>
  </diagram>
</mxfile>
